<?xml version="1.0" encoding="UTF-8" standalone="no"?>
<!-- Created with Inkscape (http://www.inkscape.org/) -->

<svg
   width="64"
   height="64"
   viewBox="0 0 64 64"
   version="1.1"
   id="svg1"
   xmlns="http://www.w3.org/2000/svg"
   xmlns:svg="http://www.w3.org/2000/svg"
   xmlns:rdf="http://www.w3.org/1999/02/22-rdf-syntax-ns#"
   xmlns:cc="http://creativecommons.org/ns#">
  <defs
     id="defs1" />
  <g
     id="layer1"
     transform="matrix(5.6442037,0,0,7.3076125,-4.6000088,-46.466071)"
     style="stroke-width:0.152119">
    <rect
       style="fill:#0065ff;fill-opacity:1;stroke:#000000;stroke-width:0.155708;stroke-linecap:round;stroke-linejoin:round;stroke-dasharray:none;paint-order:fill markers stroke"
       id="rect1"
       width="2.6790586"
       height="1.0758843"
       x="1.6429914"
       y="9.9883528"
       ry="0"
       rx="0" />
    <rect
       style="fill:#0065ff;fill-opacity:1;stroke:#000000;stroke-width:0.155708;stroke-linecap:round;stroke-linejoin:round;stroke-dasharray:none;paint-order:fill markers stroke"
       id="rect1-5"
       width="2.6790586"
       height="1.0758843"
       x="5.1450005"
       y="9.9883528"
       ry="0"
       rx="0" />
    <rect
       style="fill:#0065ff;fill-opacity:1;stroke:#000000;stroke-width:0.155708;stroke-linecap:round;stroke-linejoin:round;stroke-dasharray:none;paint-order:fill markers stroke"
       id="rect1-2"
       width="2.6790586"
       height="1.0758843"
       x="8.6470098"
       y="9.9883528"
       ry="0"
       rx="0" />
    <rect
       style="fill:#0065ff;fill-opacity:1;stroke:#000000;stroke-width:0.155708;stroke-linecap:round;stroke-linejoin:round;stroke-dasharray:none;paint-order:fill markers stroke"
       id="rect1-7"
       width="2.6790586"
       height="1.0758843"
       x="1.6429914"
       y="11.6297"
       ry="0"
       rx="0" />
    <rect
       style="fill:#0065ff;fill-opacity:1;stroke:#000000;stroke-width:0.155708;stroke-linecap:round;stroke-linejoin:round;stroke-dasharray:none;paint-order:fill markers stroke"
       id="rect1-5-5"
       width="2.6790586"
       height="1.0758843"
       x="5.1450009"
       y="11.6297"
       ry="0"
       rx="0" />
    <rect
       style="fill:#0065ff;fill-opacity:1;stroke:#000000;stroke-width:0.155708;stroke-linecap:round;stroke-linejoin:round;stroke-dasharray:none;paint-order:fill markers stroke"
       id="rect1-2-9"
       width="2.6790586"
       height="1.0758843"
       x="8.6470098"
       y="11.6297"
       ry="0"
       rx="0" />
    <rect
       style="fill:#0065ff;fill-opacity:1;stroke:#000000;stroke-width:0.155708;stroke-linecap:round;stroke-linejoin:round;stroke-dasharray:none;paint-order:fill markers stroke"
       id="rect1-3"
       width="2.6790586"
       height="1.0758843"
       x="1.6429914"
       y="13.271048"
       ry="0"
       rx="0" />
    <rect
       style="fill:#0065ff;fill-opacity:1;stroke:#000000;stroke-width:0.155708;stroke-linecap:round;stroke-linejoin:round;stroke-dasharray:none;paint-order:fill markers stroke"
       id="rect1-5-6"
       width="2.6790586"
       height="1.0758843"
       x="5.1450009"
       y="13.271048"
       ry="0"
       rx="0" />
    <rect
       style="fill:#0065ff;fill-opacity:1;stroke:#000000;stroke-width:0.155708;stroke-linecap:round;stroke-linejoin:round;stroke-dasharray:none;paint-order:fill markers stroke"
       id="rect1-2-1"
       width="2.6790586"
       height="1.0758843"
       x="8.6470098"
       y="13.271048"
       ry="0"
       rx="0" />
    <path
       style="font-size:3.22635px;text-align:center;text-anchor:middle;stroke:#000000;stroke-width:0.155708;stroke-linecap:round;stroke-linejoin:round;paint-order:fill markers stroke"
       d="m 1.7433392,8.4014753 v 1.8289997 h 0.3843893 q 0.4867882,0 0.7120656,-0.220551 0.2268527,-0.2205511 0.2268527,-0.6963117 0,-0.4726098 -0.2268527,-0.6915858 Q 2.6145167,8.4014753 2.1277285,8.4014753 Z M 1.4251152,8.1399645 h 0.653777 q 0.6837089,0 1.0035083,0.2851413 0.3197993,0.2835659 0.3197993,0.8885065 0,0.6080914 -0.3213747,0.8932327 -0.3213747,0.285141 -1.0019329,0.285141 h -0.653777 z m 2.4843526,0 H 5.3966135 V 8.4077767 H 4.2276917 V 9.1040886 H 5.3477771 V 9.3719009 H 4.2276917 v 0.8522731 h 1.1972784 v 0.267812 H 3.9094678 Z m 3.7997836,0.1811671 v 0.335553 Q 7.548564,8.5070248 7.3658215,8.4329826 7.1846544,8.3589404 6.9798568,8.3589404 q -0.4032938,0 -0.6175436,0.2473325 -0.2142498,0.2457571 -0.2142498,0.7120655 0,0.4647331 0.2142498,0.7120656 0.2142498,0.245757 0.6175436,0.245757 0.2047976,0 0.3859647,-0.07404 0.1827425,-0.07404 0.3434299,-0.2237021 v 0.3324021 q -0.1669888,0.113427 -0.3544574,0.17014 -0.1858932,0.05671 -0.3938416,0.05671 -0.5340491,0 -0.8412456,-0.326101 -0.3071964,-0.3276761 -0.3071964,-0.8932326 0,-0.5671318 0.3071964,-0.8932326 0.3071965,-0.3276762 0.8412456,-0.3276762 0.2110991,0 0.3969923,0.056713 0.1874686,0.055138 0.3513067,0.1669888 z M 8.2007652,8.1399645 h 0.318224 V 9.1340206 L 9.5744846,8.1399645 H 9.9840798 L 8.8167334,9.2364194 10.067574,10.491986 H 9.6485268 L 8.5189892,9.3592979 v 1.1326881 h -0.318224 z"
       id="text1"
       transform="scale(1.1284617,0.8861621)"
       aria-label="DECK" />
  </g>
  <metadata
     id="metadata1">
    <rdf:RDF>
      <cc:Work
         rdf:about="">
        <cc:license
           rdf:resource="http://artlibre.org/licence/lal" />
      </cc:Work>
      <cc:License
         rdf:about="http://artlibre.org/licence/lal">
        <cc:permits
           rdf:resource="http://creativecommons.org/ns#Reproduction" />
        <cc:permits
           rdf:resource="http://creativecommons.org/ns#Distribution" />
        <cc:permits
           rdf:resource="http://creativecommons.org/ns#DerivativeWorks" />
        <cc:requires
           rdf:resource="http://creativecommons.org/ns#ShareAlike" />
        <cc:requires
           rdf:resource="http://creativecommons.org/ns#Notice" />
        <cc:requires
           rdf:resource="http://creativecommons.org/ns#Attribution" />
      </cc:License>
    </rdf:RDF>
  </metadata>
</svg>
